<svg width="100%" height="100%" viewBox="0 0 24 17" fill="none" xmlns="http://www.w3.org/2000/svg">
<g id="comment">
<path id="Subtract" fill-rule="evenodd" clip-rule="evenodd" d="M3 0C1.34315 0 0 1.34315 0 3V11C0 12.6569 1.34315 14 3 14H21C22.6569 14 24 12.6569 24 11V3C24 1.34315 22.6569 0 21 0H3ZM2.92308 0.875C1.81851 0.875 0.923077 1.77043 0.923077 2.875V11.125C0.923077 12.2296 1.81851 13.125 2.92307 13.125H21.0769C22.1815 13.125 23.0769 12.2296 23.0769 11.125V2.875C23.0769 1.77043 22.1815 0.875 21.0769 0.875H2.92308Z" fill="white"/>
<path id="Rectangle 72" d="M7 14H11L7 17V14Z" fill="white"/>
</g>
</svg>
