<svg width="25" height="25" viewBox="0 0 25 25" fill="none" xmlns="http://www.w3.org/2000/svg">
<g id="image">
<path id="rect" fill-rule="evenodd" clip-rule="evenodd" d="M4 0C1.79086 0 0 1.79086 0 4V21C0 23.2091 1.79086 25 4 25H21C23.2091 25 25 23.2091 25 21V4C25 1.79086 23.2091 0 21 0H4ZM3.35135 1.35135C2.24678 1.35135 1.35135 2.24678 1.35135 3.35135V21.6486C1.35135 22.7532 2.24678 23.6486 3.35135 23.6486H21.6486C22.7532 23.6486 23.6486 22.7532 23.6486 21.6486V3.35135C23.6486 2.24678 22.7532 1.35135 21.6486 1.35135H3.35135Z" fill="white"/>
<path id="Rectangle 45" d="M8.44595 18.9189L13.8514 23.6487H3.04054L8.44595 18.9189Z" fill="white"/>
<path id="Rectangle 46" d="M16.5541 17.5676L23.6486 23.6487H9.45946L16.5541 17.5676Z" fill="white"/>
<circle id="Ellipse 7" cx="17.2297" cy="10.473" r="1.68919" fill="white"/>
</g>
</svg>
