<svg width="25" height="25" viewBox="0 0 25 25" fill="none" xmlns="http://www.w3.org/2000/svg">
<g id="link">
<path id="Subtract" fill-rule="evenodd" clip-rule="evenodd" d="M20.3833 2.70563C18.6681 0.990494 15.8873 0.990492 14.1722 2.70563L6.16606 10.7118L12.3771 16.9228L20.3833 8.91671C22.0984 7.20157 22.0984 4.42077 20.3833 2.70563ZM19.3731 3.71579C18.1857 2.52838 16.2606 2.52838 15.0732 3.71579L8.13177 10.6572L12.4317 14.9571L19.3731 8.01576C20.5605 6.82836 20.5605 4.90319 19.3731 3.71579Z" fill="white"/>
<path id="Subtract_2" fill-rule="evenodd" clip-rule="evenodd" d="M4.61671 22.2944C6.33185 24.0095 9.11264 24.0095 10.8278 22.2944L18.8339 14.2882L12.6228 8.07715L4.61671 16.0833C2.90157 17.7984 2.90157 20.5792 4.61671 22.2944ZM5.62686 21.2842C6.81427 22.4716 8.73943 22.4716 9.92683 21.2842L16.8682 14.3428L12.5682 10.0429L5.62686 16.9842C4.43945 18.1716 4.43945 20.0968 5.62686 21.2842Z" fill="white"/>
</g>
</svg>
