<svg width="100%" height="100%" viewBox="0 0 25 25" fill="none" xmlns="http://www.w3.org/2000/svg">
<g id="repost">
<path id="Subtract" fill-rule="evenodd" clip-rule="evenodd" d="M0 4C0 1.79086 1.79086 0 4 0H19.125C21.3341 0 23.125 1.79086 23.125 4L23.125 6H21.25V4.02703C21.25 2.92246 20.3546 2.02703 19.25 2.02703H3.875C2.77043 2.02703 1.875 2.92246 1.875 4.02703V20.973C1.875 22.0775 2.77043 22.973 3.875 22.973H19.25C20.3546 22.973 21.25 22.0775 21.25 20.973V18.8378H23.125L23.125 21C23.125 23.2091 21.3341 25 19.125 25H4C1.79086 25 0 23.2091 0 21V4Z" fill="white"/>
<path id="Polygon 3" d="M22.1875 16L24.6232 19.5473H19.7518L22.1875 16Z" fill="white"/>
</g>
</svg>
