<svg width="100%" height="100%" viewBox="0 0 25 25" fill="none" xmlns="http://www.w3.org/2000/svg">
<g id="settings">
<path id="Subtract" fill-rule="evenodd" clip-rule="evenodd" d="M6.95415 4.40409L2.82151 4.82266C2.13386 5.72204 1.56423 6.71978 1.13633 7.79168L2.86484 11.6892C3.09381 12.2055 3.09381 12.7945 2.86484 13.3108L1.13633 17.2083C1.56423 18.2802 2.13386 19.278 2.82151 20.1773L6.95415 20.5959C7.53091 20.6543 8.05395 20.9601 8.38776 21.4341L10.8171 24.8833C11.3672 24.9602 11.929 25 12.5 25C13.0709 25 13.6327 24.9602 14.1829 24.8833L16.6122 21.4341C16.946 20.9601 17.469 20.6543 18.0458 20.5959L22.1784 20.1773C22.8661 19.278 23.4357 18.2802 23.8636 17.2083L22.1351 13.3108C21.9061 12.7945 21.9061 12.2055 22.1351 11.6892L23.8636 7.79171C23.4357 6.71979 22.8661 5.72205 22.1784 4.82266L18.0458 4.40409C17.469 4.34568 16.946 4.03988 16.6122 3.56592L14.1829 0.116735C13.6327 0.0397681 13.0709 0 12.5 0C11.929 0 11.3672 0.0397667 10.8171 0.116731L8.38776 3.56592C8.05395 4.03988 7.53091 4.34568 6.95415 4.40409ZM12.5 14.7727C13.7552 14.7727 14.7727 13.7552 14.7727 12.5C14.7727 11.2448 13.7552 10.2273 12.5 10.2273C11.2448 10.2273 10.2273 11.2448 10.2273 12.5C10.2273 13.7552 11.2448 14.7727 12.5 14.7727Z" fill="white"/>
</g>
</svg>
