<svg width="327" height="284" viewBox="0 0 327 284" fill="none" xmlns="http://www.w3.org/2000/svg">
<g id="kimchi">
<path id="Ellipse 25" d="M147.462 249.405L147.462 249.405L147.464 249.408L147.48 249.428C147.494 249.447 147.517 249.477 147.549 249.518C147.612 249.599 147.709 249.723 147.839 249.887C148.098 250.214 148.49 250.697 149.004 251.31C150.034 252.535 151.556 254.274 153.506 256.304C157.413 260.371 163.007 265.572 169.779 270.157C183.377 279.364 201.211 285.785 219.748 276.516C223.842 274.469 226.072 270.534 226.945 265.194C227.825 259.817 227.252 253.366 226.01 247.014C224.774 240.699 222.914 234.665 221.354 230.194C220.576 227.963 219.877 226.132 219.373 224.862C219.121 224.227 218.919 223.734 218.781 223.401C218.711 223.235 218.658 223.109 218.623 223.026L218.584 222.934L218.574 222.913L218.573 222.908L218.572 222.908L218.572 222.908L216.108 217.225L221.826 219.605L221.827 219.605L221.827 219.606L221.833 219.608L221.859 219.619L221.97 219.664C222.033 219.69 222.117 219.724 222.22 219.765C222.28 219.79 222.348 219.817 222.422 219.846C222.821 220.006 223.414 220.238 224.177 220.528C225.703 221.106 227.907 221.91 230.599 222.804C235.993 224.594 243.313 226.733 251.069 228.156C258.853 229.583 266.922 230.26 273.871 229.229C280.812 228.2 286.309 225.529 289.525 220.556C292.188 216.437 293.054 211.123 292.668 205.2C292.284 199.293 290.67 193.017 288.64 187.213C286.615 181.425 284.21 176.199 282.306 172.415C281.355 170.525 280.533 169.002 279.951 167.955C279.66 167.432 279.429 167.028 279.272 166.757C279.194 166.622 279.134 166.52 279.095 166.453L279.051 166.379L279.042 166.363L279.04 166.36L279.04 166.359L279.039 166.359L277.32 163.488L147.462 249.405ZM147.462 249.405L147.462 249.404M147.462 249.405L147.462 249.404M280.561 162.654L280.561 162.654L280.561 162.654ZM280.561 162.654L280.562 162.654L280.573 162.651L280.62 162.639C280.644 162.632 280.674 162.624 280.712 162.614C280.743 162.606 280.778 162.596 280.818 162.586C280.92 162.558 281.049 162.523 281.206 162.479C281.324 162.447 281.457 162.409 281.604 162.367C282.291 162.172 283.289 161.879 284.52 161.489C286.984 160.708 290.364 159.543 294.031 158.013C301.487 154.901 309.663 150.46 314.025 144.962C328.179 127.122 327.594 105.041 313.97 86.5184C310.557 81.8795 305.162 78.5058 298.716 76.1054C292.288 73.7117 285.015 72.3605 278.111 71.6374C271.221 70.9157 264.783 70.828 260.061 70.9221C257.703 70.9691 255.781 71.0614 254.452 71.1414C253.788 71.1814 253.273 71.2184 252.926 71.245C252.753 71.2584 252.622 71.2691 252.536 71.2764L252.441 71.2847L252.419 71.2866L252.414 71.287L252.414 71.2871L248.034 71.6903L249.929 67.7208L249.929 67.7203L249.931 67.7168L249.939 67.6987L249.977 67.6195C249.999 67.571 250.03 67.5055 250.068 67.4237C250.086 67.3843 250.106 67.3411 250.128 67.2942C250.26 67.0052 250.455 66.5753 250.699 66.0209C251.187 64.9118 251.869 63.3069 252.64 61.3392C254.184 57.3963 256.071 52.0323 257.465 46.3023C258.866 40.5466 259.736 34.5632 259.344 29.3354C258.951 24.1012 257.329 19.9717 254.103 17.3912C250.497 14.5058 245.197 13.604 238.78 14.23C232.413 14.8512 225.367 16.9391 218.724 19.5106C212.102 22.0738 205.997 25.0717 201.538 27.4351C199.312 28.6153 197.503 29.6334 196.255 30.3545C195.631 30.715 195.147 31.0009 194.821 31.1955C194.734 31.2476 194.658 31.2931 194.594 31.3317C194.539 31.3653 194.492 31.3937 194.454 31.4166L194.363 31.4718L194.342 31.4848L194.337 31.4875L194.337 31.4878L194.337 31.488L192.54 32.5935L191.149 31.0089L191.149 31.0087L191.148 31.008L191.148 31.0075L191.139 30.9982L191.1 30.9536C191.063 30.9125 191.006 30.8491 190.929 30.7646C190.776 30.5956 190.543 30.3425 190.235 30.0164C189.618 29.364 188.702 28.4205 187.519 27.2741C185.152 24.9794 181.726 21.8825 177.507 18.6853C169.021 12.2545 157.547 5.58972 145.15 3.99821C128.026 1.79996 110.03 0.411945 87.4404 11.868C76.8228 17.2526 70.4141 29.7209 66.6742 41.4766C64.8304 47.2724 63.6891 52.7228 63.0095 56.7283C62.6701 58.7284 62.4469 60.3615 62.3091 61.4889C62.2402 62.0524 62.1927 62.4892 62.1627 62.7817C62.1477 62.9279 62.1371 63.0381 62.1304 63.11L62.1231 63.1888L62.1216 63.2062L62.1214 63.2086L62.1213 63.2093L62.1213 63.2095L61.9533 65.1865L59.9895 65.471L59.9894 65.471L59.9889 65.4711L59.9869 65.4714L59.9723 65.4735L59.906 65.4835C59.8455 65.4927 59.7527 65.5071 59.6293 65.5268C59.3826 65.5663 59.0136 65.6274 58.5362 65.7119C57.581 65.8809 56.1927 66.1436 54.4806 66.5152C51.0528 67.2593 46.3448 68.4363 41.2235 70.166C30.8605 73.6659 19.2983 79.2687 12.9041 87.7062C10.2692 91.1833 9.54509 96.2779 10.3233 102.468C11.0945 108.602 13.2896 115.378 15.9383 121.761C18.5782 128.123 21.6205 133.981 24.0093 138.258C25.202 140.393 26.2279 142.127 26.9536 143.323C27.3163 143.922 27.6038 144.385 27.7992 144.697C27.897 144.853 27.9717 144.971 28.0213 145.049L28.0766 145.136L28.0896 145.156L28.0924 145.161L28.0926 145.161L28.0928 145.161L29.2991 147.033L27.5788 148.447L27.5787 148.447L27.5783 148.447L27.5763 148.449L27.5635 148.459L27.5063 148.507C27.4544 148.55 27.3752 148.617 27.2707 148.705C27.0616 148.882 26.7514 149.148 26.3559 149.495C25.5645 150.189 24.4328 151.207 23.0863 152.49C20.3887 155.061 16.8508 158.675 13.4633 162.867C10.0657 167.07 6.88243 171.777 4.82739 176.532C2.766 181.301 1.93284 185.899 2.90512 190.02C4.10646 195.113 7.93336 198.834 13.5854 201.536C19.2521 204.245 26.4374 205.761 33.64 206.542C40.8111 207.32 47.8318 207.352 53.0755 207.188C55.6928 207.105 57.8569 206.974 59.3624 206.864C60.115 206.809 60.7023 206.759 61.0988 206.724C61.2178 206.713 61.3196 206.704 61.4034 206.696C61.4593 206.69 61.5073 206.686 61.547 206.682L61.6576 206.671L61.6834 206.668L61.6889 206.668L61.6893 206.668L61.6897 206.667L66.1454 206.2L64.2034 210.237L64.2033 210.237L64.2032 210.238L64.2016 210.241L64.1929 210.259L64.155 210.339C64.1209 210.411 64.0692 210.522 64.0016 210.668C63.8665 210.96 63.6679 211.396 63.4191 211.959C62.9213 213.086 62.2235 214.722 61.4311 216.74C59.8439 220.783 57.8897 226.33 56.4012 232.378C54.9085 238.444 53.9115 244.907 54.1693 250.812C54.4276 256.731 55.9322 261.834 59.18 265.493C66.6303 273.885 74.0425 277.549 82.1949 279.237C88.7477 280.594 95.7171 280.68 103.767 280.78C106 280.807 108.315 280.836 110.728 280.893C122.82 281.179 130.829 273.863 135.967 266.019C138.526 262.112 140.303 258.166 141.441 255.185C142.009 253.699 142.413 252.463 142.674 251.607C142.804 251.179 142.898 250.846 142.958 250.625C142.989 250.515 143.01 250.432 143.024 250.38L143.038 250.324L143.041 250.315L143.041 250.314L143.041 250.313L143.041 250.313L144.297 245.219L147.462 249.404M280.561 162.654L147.462 249.404" stroke="#303030" stroke-width="5"/>
<circle id="Ellipse 26" cx="93.2693" cy="124.475" r="4.63988" fill="#303030"/>
<circle id="Ellipse 27" cx="146.628" cy="124.475" r="4.63988" fill="#303030"/>
</g>
</svg>
